<?xml version="1.0" standalone="no"?>
<!DOCTYPE svg PUBLIC "-//W3C//DTD SVG 20010904//EN"
 "http://www.w3.org/TR/2001/REC-SVG-20010904/DTD/svg10.dtd">
<svg version="1.0" xmlns="http://www.w3.org/2000/svg"
 width="283.000000pt" height="283.000000pt" viewBox="0 0 283.000000 283.000000"
 preserveAspectRatio="xMidYMid meet">

<g transform="translate(0.000000,283.000000) scale(0.100000,-0.100000)"
fill="#E31C3D" stroke="none">
<path d="M1083 2465 c-316 -49 -575 -201 -699 -410 -177 -296 -130 -729 137
-1255 97 -192 273 -478 371 -602 59 -76 92 -37 59 70 -32 107 -78 297 -105
432 -122 617 -85 1056 105 1264 61 67 164 122 259 137 156 25 618 -34 833
-106 73 -25 96 -39 83 -52 -4 -4 -84 -5 -179 -3 -365 10 -527 6 -602 -14 -181
-49 -278 -145 -333 -329 -33 -112 -41 -337 -18 -522 19 -161 37 -215 84 -256
33 -29 39 -31 91 -26 67 6 372 106 525 171 153 66 392 187 495 251 163 101
294 238 366 382 51 104 68 181 63 279 -6 115 -43 188 -143 283 -152 144 -459
259 -819 307 -135 17 -458 17 -573 -1z"/>
</g>
</svg>
